<?xml version="1.0" standalone="no"?>
<!DOCTYPE svg PUBLIC "-//W3C//DTD SVG 20010904//EN"
 "http://www.w3.org/TR/2001/REC-SVG-20010904/DTD/svg10.dtd">
<svg version="1.0" xmlns="http://www.w3.org/2000/svg"
 width="512.000000pt" height="512.000000pt" viewBox="0 0 512.000000 512.000000"
 preserveAspectRatio="xMidYMid meet">

<g transform="translate(0.000000,512.000000) scale(0.100000,-0.100000)"
fill="#000000" stroke="none">
<path d="M2355 4973 c-1094 -95 -1996 -894 -2219 -1962 -40 -190 -50 -296 -50
-506 0 -289 35 -516 119 -770 278 -846 990 -1482 1857 -1659 309 -63 672 -65
973 -5 939 186 1689 894 1926 1819 52 206 72 370 73 605 1 415 -78 752 -260
1115 -425 849 -1291 1379 -2233 1368 -80 -1 -164 -3 -186 -5z m1150 -911 c310
-87 530 -307 617 -617 l23 -80 0 -855 c0 -848 0 -856 -22 -941 -76 -298 -281
-514 -583 -615 l-85 -29 -895 0 -895 0 -85 29 c-107 36 -179 72 -255 128 -168
124 -277 285 -328 487 -22 85 -22 93 -22 941 l0 855 23 80 c94 336 346 568
685 630 57 11 252 13 907 12 832 -2 835 -3 915 -25z"/>
<path d="M1771 3820 c-111 -27 -230 -92 -315 -171 -88 -82 -145 -167 -189
-280 l-32 -84 -3 -750 c-3 -842 -4 -829 68 -973 95 -188 256 -318 470 -379 60
-17 116 -18 790 -18 674 0 730 1 790 18 216 61 378 193 470 382 73 148 71 126
68 968 l-3 752 -32 83 c-68 177 -197 320 -358 397 -159 76 -143 75 -942 74
-649 0 -714 -2 -782 -19z m1786 -265 c97 -41 154 -123 154 -224 1 -222 -261
-332 -417 -175 -121 121 -79 330 80 400 42 18 139 17 183 -1z m-901 -195 c166
-21 308 -77 436 -171 162 -120 285 -312 329 -514 21 -93 15 -284 -10 -380 -80
-302 -301 -528 -608 -622 -79 -24 -103 -27 -243 -27 -140 0 -164 3 -243 27
-307 94 -528 320 -608 622 -25 96 -31 287 -10 380 42 193 164 388 313 503 119
91 289 163 428 180 105 13 125 13 216 2z"/>
<path d="M2425 3105 c-230 -50 -419 -235 -476 -465 -19 -76 -16 -221 5 -295
62 -213 240 -387 451 -440 76 -19 234 -19 310 0 211 53 389 227 451 440 21 74
24 219 5 295 -81 330 -415 537 -746 465z"/>
</g>
</svg>
